<svg width="36" height="36" viewBox="0 0 36 36" fill="none" xmlns="http://www.w3.org/2000/svg">
<path d="M36 18C36 16.8691 35.8939 15.7371 35.6838 14.6381C35.589 14.1407 35.1534 13.7812 34.6477 13.7812H18.0703C17.4874 13.7812 17.0156 14.2529 17.0156 14.8359V21.164C17.0156 21.7469 17.4874 22.2187 18.0703 22.2187H26.5758C26.0459 23.2915 25.3155 24.2224 24.4579 25.0055L30.419 30.9666C33.8489 27.6988 36 23.1004 36 18Z" fill="white"/>
<path d="M17.9998 8.4375C20.069 8.4375 22.0373 9.09464 23.6914 10.3388C24.1095 10.653 24.6997 10.6149 25.0705 10.2409L29.5715 5.73996C29.7806 5.53085 29.8928 5.24348 29.8794 4.94789C29.8661 4.6523 29.7301 4.37625 29.5035 4.1857C26.2828 1.48627 22.1969 0 17.9998 0C11.8229 0 6.366 3.13973 3.14014 7.90678L9.33101 14.0977C10.808 10.7708 14.1311 8.4375 17.9998 8.4375Z" fill="white"/>
<path d="M17.9998 36C22.0261 36 25.7337 34.65 28.7296 32.4009L22.6566 26.328C21.2685 27.1095 19.682 27.5625 17.9998 27.5625C14.1311 27.5625 10.808 25.2293 9.33101 21.9023L3.14014 28.0932C6.366 32.8603 11.8229 36 17.9998 36Z" fill="white"/>
<path d="M8.59106 19.5191C8.51027 19.0213 8.4375 18.5201 8.4375 18C8.4375 17.4799 8.51027 16.9786 8.59106 16.4809L1.97297 9.86279C0.720844 12.3083 0 15.0691 0 18C0 20.9309 0.720844 23.6917 1.97304 26.1371L8.59106 19.5191Z" fill="white"/>
</svg>
