<svg width="36" height="36" viewBox="0 0 36 36" fill="none" xmlns="http://www.w3.org/2000/svg">
<g clip-path="url(#clip0)">
<path d="M35.6791 26.0507C35.5823 25.8887 34.9838 24.5881 32.1036 21.9149C29.0884 19.1156 29.4934 19.5702 33.1252 14.7301C35.3371 11.7824 36.2214 9.98222 35.9446 9.21267C35.6814 8.47911 34.0545 8.67262 34.0545 8.67262L28.6451 8.70413C28.6451 8.70413 28.2446 8.65012 27.9453 8.82789C27.655 9.0034 27.4683 9.40843 27.4683 9.40843C27.4683 9.40843 26.6109 11.6901 25.4679 13.6297C23.0579 17.7228 22.0926 17.9388 21.6988 17.6845C20.783 17.0927 21.0125 15.3039 21.0125 14.0348C21.0125 10.0677 21.6133 8.41386 19.8402 7.98632C19.2507 7.84456 18.8186 7.75006 17.3133 7.73431C15.3826 7.71405 13.7468 7.74106 12.8219 8.19334C12.2054 8.49486 11.7306 9.16766 12.0209 9.20592C12.3787 9.25317 13.1887 9.42418 13.6185 10.0092C14.1743 10.763 14.154 12.4597 14.154 12.4597C14.154 12.4597 14.4736 17.1288 13.4092 17.7093C12.6779 18.1076 11.6766 17.2953 9.5277 13.5802C8.42737 11.6788 7.59481 9.57494 7.59481 9.57494C7.59481 9.57494 7.43505 9.18341 7.14927 8.97415C6.80275 8.71988 6.31671 8.63887 6.31671 8.63887L1.17284 8.67037C1.17284 8.67037 0.401032 8.69288 0.117511 9.02815C-0.134508 9.32742 0.0972594 9.94397 0.0972594 9.94397C0.0972594 9.94397 4.12505 19.3654 8.68389 24.1155C12.8669 28.4696 17.6148 28.1838 17.6148 28.1838H19.7659C19.7659 28.1838 20.4162 28.1118 20.747 27.754C21.053 27.4255 21.0418 26.809 21.0418 26.809C21.0418 26.809 20.999 23.922 22.3401 23.4967C23.661 23.0782 25.3576 26.2869 27.1555 27.5223C28.5146 28.4561 29.5474 28.2513 29.5474 28.2513L34.356 28.1838C34.356 28.1838 36.8717 28.0286 35.6791 26.0507Z" fill="white"/>
</g>
<defs>
<clipPath id="clip0">
<rect width="36" height="36" fill="white"/>
</clipPath>
</defs>
</svg>
